# xmcd CD database file
# Generated: Fri Sep 6 22:38:42 2002 by KSCD
# 
# Track frame offsets:
#       150
#       12512
#       26155
#       39532
#       52995
#       65620
#       80685
#       95455
#       108657
#       122612
#       136017
#       148352
#
# Disc length: 2151 seconds
#
# Revision: 1
# Processed by: cddbd v1.4PL0 Copyright (c) Steve Scherf et al.
# Submitted via: Kscd 1.3.3
#
DISCID=aa08650c
DTITLE=John Lee Hooker - House Of The Blues
DYEAR=1900
DGENRE=
TTITLE0=Walkin' the Boogie
TTITLE1=Love Blues
TTITLE2=Union Station Blues
TTITLE3=It's My Own Fault
TTITLE4=Leave My Wife Alone
TTITLE5=Ramblin' By Myself
TTITLE6=Sugar Mama
TTITLE7=Down At The Landing 
TTITLE8=Louise
TTITLE9=Ground Hog Blues
TTITLE10=High Priced Woman
TTITLE11=Women and Money
EXTD=MCA Records 1987\nChess/ MCA    CHD 9258
EXTT0=
EXTT1=
EXTT2=
EXTT3=
EXTT4=
EXTT5=
EXTT6=
EXTT7=
EXTT8=
EXTT9=
EXTT10=
EXTT11=
PLAYORDER=
